<svg width="116" height="43" viewBox="0 0 116 43" fill="none" xmlns="http://www.w3.org/2000/svg">
  <path fill-rule="evenodd" clip-rule="evenodd" d="M9.68179 19.6447L11.2272 21.2002L16.5909 15.8016L15.0454 14.2461L9.68179 19.6447Z" fill="white"/>
  <path fill-rule="evenodd" clip-rule="evenodd" d="M0 21.6119L5.40909 27.0562L8.86364 23.5792L7.31815 22.0237L5.40906 23.9452L3.09088 21.6119L5.40906 19.2786L11.1818 25.0889L12.7272 23.5334L5.40903 16.1676L0 21.6119Z" fill="white"/>
  <path fill-rule="evenodd" clip-rule="evenodd" d="M15.0909 18.1349L13.5455 19.6904L18.9091 25.089L20.4545 23.5335L15.0909 18.1349Z" fill="white"/>
  <path fill-rule="evenodd" clip-rule="evenodd" d="M24.3182 23.5792L22.7727 22.0237L17.409 27.4222L18.9545 28.9778L24.3182 23.5792Z" fill="white"/>
  <path fill-rule="evenodd" clip-rule="evenodd" d="M7.72727 13.8343L11.1818 17.3114L12.7272 15.7559L10.8182 13.8344L13.1363 11.5011L18.9091 17.3114L20.4546 15.7559L13.1364 8.39005L7.72727 13.8343Z" fill="white"/>
  <path fill-rule="evenodd" clip-rule="evenodd" d="M13.5454 27.468L20.8636 34.8338L26.2727 29.3895L22.8182 25.9125L21.2726 27.4681L23.1817 29.3896L20.8635 31.7229L15.0908 25.9126L13.5454 27.468Z" fill="white"/>
  <path fill-rule="evenodd" clip-rule="evenodd" d="M21.2727 19.6904L28.5909 27.0562L34 21.6119L28.5909 16.1677L25.1364 19.6447L26.6818 21.2002L28.5909 19.2787L30.9091 21.612L28.5909 23.9453L22.8182 18.135L21.2727 19.6904Z" fill="white"/>
  <path fill-rule="evenodd" clip-rule="evenodd" d="M7.72727 29.3895L13.1364 34.8338L16.5909 31.3568L15.0454 29.8012L13.1363 31.7227L10.8182 29.3895L16.5909 23.5792L15.0454 22.0236L7.72727 29.3895Z" fill="white"/>
  <path fill-rule="evenodd" clip-rule="evenodd" d="M17.4098 11.8665L18.9552 13.4219L20.8643 11.5004L23.1825 13.8337L17.4097 19.644L18.9552 21.1995L26.2733 13.8337L20.8642 8.38936L17.4098 11.8665Z" fill="white"/>
  <path d="M14.2274 7.32129L17.0304 4.5L19.8335 7.32129L17.0304 10.1426L14.2274 7.32129Z" fill="white"/>
  <path d="M14.2274 35.6787L17.0304 32.8574L19.8335 35.6787L17.0304 38.5L14.2274 35.6787Z" fill="white"/>
  <path d="M54.396 22.292L59.156 31H55.824L51.344 22.432H48.32V31H45.38V11.4H52.66C57.028 11.4 58.68 13.528 58.68 16.608V17.168C58.68 19.772 57.476 21.76 54.396 22.292ZM52.828 14.06H48.32V19.772H52.884C54.816 19.772 55.74 18.708 55.74 17.196V16.552C55.74 15.04 54.788 14.06 52.828 14.06ZM62.5987 14.34V11.176H65.3707V14.34H62.5987ZM65.3147 31H62.6547V17.056H65.3147V31ZM75.286 28.76H76.854V31.14H75.006C72.094 31.14 70.498 29.292 70.498 26.576V19.296H68.258V17.056H70.554V14.592L73.158 13.612V17.056H76.574V19.296H73.158V26.828C73.158 28.06 73.998 28.76 75.286 28.76ZM88.5912 26.24V17.056H91.2512V31H88.8152L88.5912 29.096C88.0592 30.44 86.5192 31.28 84.6432 31.28C81.5632 31.28 79.7992 29.516 79.7992 26.212V17.056H82.4592V26.212C82.4592 27.696 83.4952 28.9 85.5392 28.9C87.4432 28.9 88.5912 27.696 88.5912 26.24ZM106.634 21.564V31H104.198L103.974 29.096C103.442 30.44 101.902 31.28 100.026 31.28H99.5219C97.2539 31.28 95.4059 29.88 95.4059 27.584V26.8C95.4059 24.504 97.1979 23.048 100.082 23.048H103.974V21.62C103.974 20.164 103.134 19.128 101.118 19.128C99.4659 19.128 98.4299 19.968 98.4299 21.2V21.592H95.7979V21.088C95.7979 18.736 97.6459 16.776 101.118 16.776C104.87 16.776 106.634 19.128 106.634 21.564ZM103.974 26.52V25.232H99.9699C98.8499 25.232 98.0659 25.82 98.0659 26.8V27.388C98.0659 28.396 98.6819 29.012 99.8299 29.012H100.922C102.546 29.012 103.974 27.976 103.974 26.52ZM114.845 28.76H115.097V31.14H114.369C111.961 31.14 110.421 29.628 110.421 26.912V10.84H113.081V27.164C113.081 28.396 113.697 28.76 114.845 28.76Z" fill="white"/>
</svg>
